/* XPM */
static char *result[] = {
/* columns rows colors chars-per-pixel */
"16 16 4 1 ",
"  c #3EA2C6",
". c #51B3D6",
"X c #59B8D9",
"o c #61BDDC",
/* pixels */
"ooXooXXooXXooXoo",
"o..............o",
"X.   ......   .X",
"o. .. .... .. .o",
"o.o... .. ...o.o",
"X..o...  ...o..X",
"X...o......o...X",
"o....o....o....o",
"o.... .... ....o",
"X... ...... ...X",
"X.. ...oo... ..X",
"o. ...o..o... .o",
"o. ..o....o.. .o",
"X.ooo......ooo.X",
"o..............o",
"ooXooXXooXXooXoo"
};
