/* XPM */
static char *result[] = {
/* columns rows colors chars-per-pixel */
"16 16 12 1 ",
"  c #EECC7D",
". c #42CDD6",
"X c #4DD8E1",
"o c #5BDFE8",
"O c #69EBF3",
"+ c #7BF7FF",
"@ c #BBBBBB",
"# c #FAE78C",
"$ c #FFF299",
"% c #CACACA",
"& c gainsboro",
"* c None",
/* pixels */
"****************",
"********+OOO****",
"*******+Ooo*****",
"******+OoX******",
"******OoXX.&%***",
"******Oo*.$#@**O",
"******O**&# .*XO",
"********&%@.XXoO",
"*******&%@**XoO+",
"******&%@**XoO+*",
"*****&%@**OOO+**",
"****&%@*********",
"***&%@**********",
"**$#@***********",
"**# ************",
"****************"
};
