/* XPM */
static char *result[] = {
/* columns rows colors chars-per-pixel */
"32 32 82 1 ",
"  c #23201E",
". c #262524",
"X c #292624",
"o c #292827",
"O c #2E2D2B",
"+ c #312F2C",
"@ c #2F302D",
"# c #34322E",
"$ c #39362F",
"% c #353432",
"& c #393633",
"* c #3C3A35",
"= c #373738",
"- c #393738",
"; c #3D3C3A",
": c #413D37",
"> c #423E3B",
", c #3E403B",
"< c #44423D",
"1 c #48443F",
"2 c #454441",
"3 c #494641",
"4 c #474844",
"5 c #4C4945",
"6 c #4D4C49",
"7 c #514C46",
"8 c #514E49",
"9 c #54524D",
"0 c #5A554F",
"q c #4F5051",
"w c #555553",
"e c #595651",
"r c #5B5954",
"t c #5D5D5B",
"y c #605A54",
"u c #625F5C",
"i c #64615E",
"p c #646463",
"a c #696763",
"s c #6B6965",
"d c #656468",
"f c #6C6B6B",
"g c #706F6D",
"h c #73716D",
"j c #6E6E70",
"k c #716F70",
"l c #747472",
"z c #797674",
"x c #7A7976",
"c c #7C7C7A",
"v c #817F7C",
"b c #7F807F",
"n c #83827E",
"m c #7F8284",
"M c #848383",
"N c #898784",
"B c #8A8986",
"V c #878789",
"C c #8C8B8A",
"Z c #918E8E",
"A c #93918E",
"S c #949492",
"D c #999794",
"F c #9A9896",
"G c #9C9B9A",
"H c #A19F9B",
"J c #A2A29F",
"K c #A5A4A3",
"L c #A8A5A2",
"P c #ABA9A6",
"I c #AAA8A9",
"U c #B1AEAC",
"Y c #B4B0AE",
"T c #B0AFB0",
"R c #B4B4B2",
"E c #B8B9B7",
"W c #BEBDBC",
"Q c #C4C3C2",
"! c #C9C7C4",
"~ c #C8C9C5",
"^ c #CECDC9",
"/ c #DDDADB",
/* pixels */
"t#11<>>*<uff4467797izls@;-711lhl",
"p<%12<<8,1sxw*w99iy7izz-&<8325sp",
"r2O<>eMw*$5w2*95BG9<599#+>0si1<w",
"4,-<wZpo@$;<245PYMO:<11<>0FIu,<<",
">2*tGp6o#$<**,CZCsX7<1<<eAIC=<1<",
"2>sKjp=O&*,*&gccj%871<>3DScw,575",
">2Izt;O=#*$*iFlt=5851<<NEs9;5796",
">ex-O#;lw%&,xM*#<eDr115Qf=&<nCr6",
"%;-+$,1JN9#<84%<:e^Mt58a<%<7D!lr",
"-+%&,<<xbgi#,1*$&>BSMi21<<<5y!nv",
"t%-<651<ljxt#11:::eZMM9*<<157sDv",
"h6;596554spp<&11>>2uMMv=155<23pB",
"lt+390si1,wr2O>17uw3rcc2>q5ru52u",
"er>9rFIt,1<5,*<rFD8<5wy2>8zGN&23",
"5w90JPZ-<11<1;rDAlo27w708hJZw+35",
"563UFZa%11,4;wAMM6#38870sIVm+>13",
"51JIVl,<53225GFMd#88868w!nM,4<<1",
"6a/Vj*1883>2vQbw%8r0776PTk2>6641",
"1nD5@80Hx8>4NA&o<rPh635Ya%<3nSt<",
"591<778RPz828-&&*9~Ss369:395BRCa",
"a<88<85zSMx9>>:&-<zGMg<969779ZAb",
"c6869815accl>--#*>7vVvp;877758nz",
"Ms:99854<rbzqO&&->28gxc=<5576;2a",
"zf+899hs,;6s6.$&1hu<<ia;$13ih4%,",
"88<7uKR5+<>5>$+rRG->3272<5kFp ;3",
"555sLLfO$<52>*yJVf.337575cmi%.>3",
"37eRFmt@-:23:uMkv;-6>385cBp6.&:2",
"*&hxVp41:*>>qCfd--><>>3aRfi=+=*>",
"*iFl2<rt2&2;zD6.%<6:&*>UM4;#%#*%",
",xN,<9iRB<->e< #&qWj:*>z-.#,lw%&",
"<81$175Bcd>&>>:%#>Czu*&&**;1LM9#",
"#,<:1<<ikdt->31>>-ucpw+&&*<<xbfa"
};
