/* XPM */
static char *result[] = {
/* columns rows colors chars-per-pixel */
"16 16 11 1 ",
"  c #702284",
". c #78298C",
"X c #88319E",
"o c #9147A3",
"O c #9B52AC",
"+ c #A761B7",
"@ c #B051C7",
"# c #B85FCE",
"$ c #BF69D4",
"% c #CC7BDF",
"& c #D78BE9",
/* pixels */
"&&&$X.%$#+X.&&&$",
"&$$@.%$#oO+.&$$@",
"%$##%$#X.+Oo%#$#",
"&$#@%$#. +Oo&#$@",
"&$#@%$#X.+Oo&#$@",
"%$##%$#. +Oo%#$#",
"&##@.%$#+OoX&##@",
"$@@@ .%$#o .$@@@",
"&&&$.X+%$#.X&&&$",
"&$$@.+Oo%$#.&$$@",
"%$##+OoX.%$#%#$#",
"&$#@+Oo. %$#&#$@",
"&$#@+OoX.%$#&#$@",
"%$##+Oo. %$#%#$#",
"&##@XoO+%$#.&##@",
"$@@@. o%$#. $@@@"
};
